<svg width="1709" height="403" viewBox="0 0 1709 403" fill="none" xmlns="http://www.w3.org/2000/svg">
<path d="M0.726562 403V0.220001H52.7866V238.052L68.6786 169.552L239.655 0.220001H308.703L137.727 170.1L325.691 403H261.575L101.559 205.72L52.7866 254.492V403H0.726562Z" fill="black"/>
<path d="M338.466 403V355.324L573.01 47.896H346.138V0.220001H638.222V47.896L402.582 355.324H648.086V403H338.466Z" fill="black"/>
<path d="M699.148 403V0.220001H966.572V47.348H751.208V175.032H950.68V221.612H751.208V355.872H967.668V403H699.148Z" fill="black"/>
<path d="M1030.43 403V0.220001H1205.79C1288.54 0.220001 1335.67 48.444 1335.67 115.3C1335.67 181.608 1290.18 228.736 1205.79 228.736H1182.78L1238.67 242.984L1351.01 403H1289.64L1170.72 228.736H1082.49V403H1030.43ZM1082.49 182.704H1204.7C1255.11 182.704 1283.61 155.852 1283.61 115.3C1283.61 74.2 1255.11 47.348 1204.7 47.348H1082.49V182.704Z" fill="black"/>
<path d="M1395.96 403V0.220001H1462.27L1657.36 333.404V0.220001H1708.87V403H1642.56L1446.93 69.816V403H1395.96Z" fill="black"/>
</svg>
